<svg width="449" height="808" viewBox="0 0 449 808" fill="none" xmlns="http://www.w3.org/2000/svg">
<path fill-rule="evenodd" clip-rule="evenodd" d="M158.372 206.839C161.321 203.407 166.683 202.717 170.544 205.271L245.074 254.564C251.762 259.301 252.949 268.153 247.714 274.242C242.433 280.387 232.687 281.323 226.14 276.314L159.224 217.843C155.889 214.93 155.52 210.157 158.372 206.839Z" fill="#FFC999"/>
<path fill-rule="evenodd" clip-rule="evenodd" d="M157.98 193.897C157.98 193.897 171.901 202.006 170.009 210.772C168.297 218.711 159.482 218.094 159.482 218.094C159.482 218.094 150.612 218.759 141.198 215.965C134.995 214.126 123.585 209.526 124.196 206.398C124.991 202.321 137.575 208.217 139.104 205.551C140.671 202.815 138.169 201.419 133.615 196.525C130.77 193.465 126.657 191.479 124.782 188.462C121.117 182.566 138.2 180.133 157.98 193.897Z" fill="#FFC999"/>
<path d="M127.166 186.267C127.31 185.958 127.699 185.814 128.035 185.946C130.946 187.09 133.516 188.508 135.765 190.138C137.964 191.732 139.741 193.441 141.133 195.153C141.622 195.755 142.029 196.316 142.358 196.821L142.607 197.218C142.674 197.328 142.723 197.416 142.757 197.48C142.917 197.782 142.78 198.147 142.452 198.294C142.123 198.441 141.726 198.316 141.566 198.013L141.442 197.798C141.385 197.703 141.312 197.585 141.221 197.447C140.915 196.977 140.534 196.451 140.072 195.883C138.747 194.253 137.049 192.62 134.945 191.094C132.787 189.53 130.316 188.168 127.515 187.067C127.178 186.934 127.022 186.576 127.166 186.267Z" fill="#DD936F"/>
<path d="M133.827 185.628C133.96 185.315 134.344 185.16 134.685 185.283L134.997 185.402C135.086 185.437 135.187 185.478 135.299 185.525L135.477 185.6C136.093 185.86 136.779 186.177 137.516 186.55C139.619 187.615 141.722 188.927 143.687 190.497C145.195 191.702 146.563 193.016 147.755 194.441C147.978 194.708 147.924 195.09 147.634 195.295C147.344 195.5 146.928 195.451 146.705 195.184C145.569 193.826 144.263 192.571 142.818 191.416C140.929 189.907 138.903 188.643 136.877 187.617C136.31 187.33 135.777 187.079 135.285 186.862L134.924 186.706C134.574 186.559 134.328 186.463 134.202 186.417C133.861 186.294 133.693 185.941 133.827 185.628Z" fill="#DD936F"/>
<path d="M142.042 185.983C142.228 185.693 142.634 185.596 142.949 185.767C146.533 187.705 149.335 189.69 151.445 191.615C152.189 192.294 152.794 192.919 153.271 193.476L153.496 193.745C153.663 193.95 153.778 194.104 153.845 194.205C154.037 194.491 153.94 194.866 153.629 195.043C153.317 195.219 152.909 195.13 152.717 194.844L152.637 194.731C152.551 194.616 152.417 194.447 152.231 194.23C151.787 193.711 151.217 193.124 150.512 192.48C148.48 190.626 145.766 188.704 142.277 186.817C141.962 186.646 141.857 186.273 142.042 185.983Z" fill="#DD936F"/>
<path fill-rule="evenodd" clip-rule="evenodd" d="M117.353 321.36C140.378 333.029 154.006 317.903 154.006 317.903C154.006 317.903 173.741 317.326 177.5 304.072C191.283 302.345 195.405 286.57 186.476 273.173C194.352 260.914 179.811 249.769 179.811 249.769C186.476 234.723 175.571 220.79 166.482 213.546C156.182 175.096 132.552 180.112 132.552 180.112C123.009 168.409 103.013 180.947 90.8949 196.55C90.8949 196.55 73.7787 200.034 78.6269 215.218C69.5383 220.79 75.5968 228.593 75.5968 228.593C75.5968 228.593 54.6935 247.678 66.5082 263.142C51.9673 276.238 63.4782 282.647 63.4782 282.647C63.4782 282.647 59.691 295.602 81.0492 301.035C77.8681 312.32 101.55 326.637 117.353 321.36Z" fill="#090909"/>
<path fill-rule="evenodd" clip-rule="evenodd" d="M159.049 228.921C156.702 233.574 151.563 236.418 147.561 234.71C143.558 233.003 142.22 227.845 144.566 223.191C146.913 218.536 152.064 216.148 156.066 217.855C160.066 219.563 161.396 224.266 159.049 228.921Z" fill="#FFC999"/>
<path fill-rule="evenodd" clip-rule="evenodd" d="M93.2299 229.707C95.5784 234.362 100.717 237.204 104.719 235.497C108.721 233.789 110.061 228.631 107.712 223.977C105.365 219.322 100.217 216.935 96.213 218.641C92.2126 220.351 90.8831 225.053 93.2299 229.707Z" fill="#FFC999"/>
<path fill-rule="evenodd" clip-rule="evenodd" d="M125.342 278.574C116.985 278.574 110.638 272.216 110.943 264.535L113.063 236.673L138.968 236.414L140.081 264.515C140.384 272.196 133.698 278.574 125.342 278.574Z" fill="#FFC999"/>
<path fill-rule="evenodd" clip-rule="evenodd" d="M151.788 223.299C150.579 239.642 141.791 255.898 125.432 254.644C113.206 253.707 99.8572 239.444 99.8572 223.063C99.8572 200.183 109.255 190.591 123.767 189.863C140.427 189.028 153.51 199.996 151.788 223.299Z" fill="#FFC999"/>
<path d="M112.379 249.232C112.587 249 112.959 248.968 113.21 249.159C117.003 252.04 121.123 253.761 125.027 254.06C129.843 254.429 134.137 253.252 137.837 250.679C138.097 250.498 138.467 250.545 138.664 250.785C138.86 251.024 138.809 251.364 138.549 251.545C134.619 254.277 130.038 255.534 124.929 255.142C120.767 254.823 116.426 253.009 112.458 249.996C112.207 249.805 112.172 249.463 112.379 249.232Z" fill="#DD936F"/>
<path fill-rule="evenodd" clip-rule="evenodd" d="M146.336 265.511C164.722 274.427 175.255 252.624 174.056 243.36C171.783 225.807 161.634 215.496 161.634 215.496C150.274 183.734 131.946 181.783 114.071 186.101C89.0596 192.146 78.8631 220.429 91.6532 223.299C110.918 227.619 115.4 212.455 118.313 202.123C120.433 194.601 127.066 195.998 129.522 200.73C130.285 202.203 132.154 203.345 134.974 200.173C137.7 197.108 141.034 199.893 141.64 210.204C142.261 220.798 146.282 216.722 148.305 221.627C151.637 229.707 139.216 232.494 143.154 247.539C143.154 247.539 129.376 257.286 146.336 265.511Z" fill="#0C0C0C"/>
<path d="M107.359 211.169C110.133 209.972 114.209 209.687 119.701 210.68C120.193 210.769 120.513 211.209 120.416 211.661C120.32 212.114 119.842 212.409 119.35 212.319C114.214 211.39 110.525 211.648 108.131 212.681C107.445 212.977 106.932 213.314 106.608 213.63L106.512 213.729L106.502 213.823C106.471 213.999 106.38 214.166 106.232 214.295L106.137 214.368C105.794 214.596 105.381 214.696 104.936 214.349C104.556 214.053 104.543 213.732 104.646 213.399C104.716 213.172 104.873 212.931 105.093 212.685C105.581 212.14 106.351 211.604 107.359 211.169Z" fill="#040404"/>
<path d="M114.542 217.308C117.303 217.315 119.408 219.936 119.398 223.063C119.396 223.524 118.989 223.897 118.487 223.896C117.986 223.894 117.58 223.519 117.582 223.058C117.589 220.765 116.158 218.983 114.537 218.978C112.915 218.974 111.471 220.746 111.463 223.039C111.461 223.5 111.053 223.873 110.551 223.871C110.05 223.869 109.645 223.494 109.646 223.033C109.658 219.907 111.781 217.3 114.542 217.308Z" fill="black"/>
<path d="M136.961 217.308C139.721 217.315 141.826 219.936 141.816 223.063C141.815 223.524 141.407 223.897 140.906 223.896C140.404 223.894 139.999 223.519 140 223.058C140.007 220.765 138.576 218.983 136.955 218.978C135.333 218.974 133.89 220.746 133.881 223.039C133.879 223.5 133.471 223.873 132.97 223.871C132.468 223.869 132.063 223.494 132.065 223.033C132.076 219.907 134.2 217.3 136.961 217.308Z" fill="#09090A"/>
<path fill-rule="evenodd" clip-rule="evenodd" d="M155.416 218.501C155.416 218.501 153.066 230.025 150.873 230.89C152.037 226.351 150.469 213.375 149.932 212.739C149.077 211.719 155.258 210.434 155.416 218.501Z" fill="black"/>
<path fill-rule="evenodd" clip-rule="evenodd" d="M96.333 216.491C96.333 216.491 99.6619 232.32 101.905 233.07C100.463 228.599 100.955 211.117 101.451 210.452C102.244 209.389 95.9923 208.429 96.333 216.491Z" fill="#020202"/>
<path d="M130.871 211.524C131.139 211.206 131.636 211.147 131.981 211.393C132.296 211.616 132.377 212.015 132.188 212.324L132.124 212.414L129.119 215.989L129.859 230.498C129.878 230.878 129.577 231.201 129.179 231.253L129.068 231.26H123.614C123.177 231.26 122.823 230.934 122.823 230.532C122.823 230.163 123.121 229.859 123.507 229.81L123.614 229.804L128.237 229.804L127.526 215.789C127.519 215.651 127.555 215.514 127.628 215.395L127.69 215.31L130.871 211.524Z" fill="#DD936F"/>
<path fill-rule="evenodd" clip-rule="evenodd" d="M118.918 235.371H134.065C134.065 235.371 132.551 239.55 126.493 239.55C120.433 239.55 118.918 235.371 118.918 235.371Z" fill="white"/>
<path d="M134.065 234.573H118.918C118.327 234.573 117.909 235.107 118.096 235.623C118.324 236.254 118.861 237.143 119.82 238.025C121.4 239.478 123.608 240.348 126.493 240.348C129.377 240.348 131.584 239.478 133.164 238.025C134.123 237.143 134.66 236.254 134.888 235.623C135.075 235.107 134.657 234.573 134.065 234.573ZM132.609 236.168L132.418 236.403C132.272 236.571 132.113 236.736 131.938 236.897C130.678 238.056 128.91 238.753 126.493 238.753C124.075 238.753 122.306 238.056 121.046 236.897L120.795 236.653C120.715 236.57 120.639 236.487 120.566 236.403L120.374 236.168H132.609Z" fill="#F5222D"/>
<path d="M131.998 210.812C136.489 209.632 140.615 209.943 144.167 211.182C145.362 211.598 146.218 212.02 146.693 212.316C147.109 212.574 147.218 213.094 146.937 213.476C146.656 213.858 146.091 213.958 145.676 213.7L145.563 213.634C145.467 213.58 145.328 213.506 145.148 213.417C144.685 213.189 144.142 212.959 143.524 212.744C140.316 211.626 136.585 211.344 132.497 212.418C132.015 212.545 131.512 212.288 131.375 211.845C131.237 211.401 131.516 210.939 131.998 210.812Z" fill="#060606"/>
<path fill-rule="evenodd" clip-rule="evenodd" d="M101.074 751.91C93.5922 752.072 87.3071 746.772 86.8354 739.905L76.7111 592.981C75.9842 582.399 84.9704 573.381 96.4981 573.132C108.027 572.882 117.467 581.5 117.279 592.104L114.684 739.301C114.563 746.184 108.555 751.748 101.074 751.91Z" fill="#FFC999"/>
<path fill-rule="evenodd" clip-rule="evenodd" d="M92.9872 435.9C79.4047 436.193 68.7483 446.715 69.3896 459.196L76.2991 593.393C76.8313 603.73 86.2354 611.786 97.4828 611.544C108.73 611.3 117.711 602.845 117.713 592.498L117.75 458.15C117.753 445.654 106.571 435.606 92.9872 435.9Z" fill="#FFC999"/>
<path fill-rule="evenodd" clip-rule="evenodd" d="M87.151 758.835L113.433 759.146L115.451 720.931L85.2776 720.571L87.151 758.835Z" fill="#597EF7"/>
<path d="M85.5047 727.409L113.363 727.741C113.839 727.746 114.221 728.106 114.215 728.544C114.209 728.946 113.88 729.274 113.458 729.322L113.341 729.328L85.4824 728.996C85.0059 728.99 84.6246 728.63 84.6307 728.192C84.6364 727.79 84.9657 727.462 85.3875 727.415L85.5047 727.409Z" fill="#E4EBF7"/>
<path fill-rule="evenodd" clip-rule="evenodd" d="M84.5526 757.297L113.448 757.641L114.222 806.34L49.115 805.564L49.0596 798.088C49.0512 795.34 51.1832 792.981 54.1226 792.488L71.4721 788.02L80.4179 783.476C83.114 782.107 84.7692 779.496 84.7272 776.664C84.6399 770.579 84.5039 760.26 84.5526 757.297Z" fill="#4E5C93"/>
<path fill-rule="evenodd" clip-rule="evenodd" d="M113.571 807.92L48.6605 807.145C48.0461 807.139 47.5542 806.672 47.5609 806.107L47.6549 799.413C47.6633 798.846 48.1686 798.394 48.7847 798.4L113.695 799.175C114.31 799.183 114.802 799.647 114.795 800.212L114.701 806.908C114.693 807.474 114.187 807.927 113.571 807.92Z" fill="#E4EBF7"/>
<path fill-rule="evenodd" clip-rule="evenodd" d="M48.7849 798.4C48.8437 794.181 52.2229 790.624 56.7622 790.004L71.4744 787.997L72.2969 798.533L48.7849 798.4Z" fill="#E4EBF7"/>
<path d="M48.7905 797.994L113.701 798.768C113.945 798.771 114.14 798.955 114.137 799.179C114.134 799.375 113.981 799.537 113.779 799.573L113.69 799.58L48.7791 798.806C48.5353 798.804 48.3402 798.619 48.3433 798.395C48.3461 798.199 48.4997 798.037 48.7014 798.002L48.7905 797.994Z" fill="#A3B5D6"/>
<path d="M84.1579 774.819C84.2646 774.381 84.7369 774.106 85.2127 774.204L85.488 774.267C85.8009 774.343 86.2236 774.46 86.727 774.625C87.8408 774.99 88.955 775.463 90.0007 776.06C91.1469 776.713 92.1415 777.477 92.9374 778.364C93.416 778.898 92.9971 779.702 92.2453 779.693C91.4437 779.684 90.1979 779.829 88.6509 780.096C88.2991 780.157 87.936 780.223 87.5637 780.295L86.6032 780.485L85.4939 780.718L85.6845 780.866C86.3708 781.413 87.0517 782.031 87.7046 782.723L88.0929 783.146C88.3219 783.404 88.5443 783.668 88.7593 783.939C89.2154 784.513 88.705 785.311 87.9374 785.224C86.9675 785.113 85.8149 785.1 84.5207 785.174C83.3774 785.239 82.164 785.369 80.924 785.548L80.1232 785.669L80.3334 785.793C80.4226 785.847 80.512 785.904 80.6015 785.962L80.8703 786.145C81.6523 786.693 82.3376 787.359 82.8966 788.152C83.1618 788.529 83.0451 789.032 82.6359 789.276C82.2267 789.52 81.6799 789.412 81.4146 789.036C80.9699 788.405 80.4246 787.875 79.7992 787.436C79.1664 786.992 78.4856 786.664 77.8059 786.435L77.4879 786.335C77.2451 786.264 77.0601 786.224 76.952 786.207C76.0057 786.061 75.9553 784.828 76.887 784.617L77.5417 784.479L77.7309 784.442C78.3886 784.311 79.1113 784.182 79.8777 784.06C81.4348 783.814 82.9689 783.635 84.4112 783.553C84.9344 783.523 85.4382 783.506 85.9212 783.504L86.0949 783.504L86.0111 783.418C85.5267 782.934 85.0288 782.492 84.5285 782.094L84.1531 781.803C83.9245 781.63 83.7089 781.477 83.5095 781.343L83.1628 781.117C83.098 781.077 83.0507 781.049 83.0228 781.033C82.3636 780.658 82.511 779.74 83.2598 779.557L84.2502 779.325C85.0108 779.152 85.8142 778.979 86.6247 778.817C87.2112 778.701 87.7803 778.594 88.325 778.5C88.8763 778.405 89.3928 778.324 89.8715 778.259L90.2514 778.209L90.1237 778.113C89.904 777.955 89.6743 777.803 89.4354 777.656L89.0701 777.44C88.1401 776.91 87.1375 776.484 86.1344 776.155C85.8713 776.069 85.6228 775.995 85.3927 775.931L84.8262 775.789C84.3504 775.691 84.0512 775.256 84.1579 774.819Z" fill="#E4EBF7"/>
<path d="M85.1264 767.034C85.0258 767.034 84.9257 767.049 84.8306 767.08C83.1932 767.605 82.7066 768.712 83.3953 769.83C83.6937 770.315 84.14 770.722 84.5992 771.046L84.8192 771.195L85.2751 771.562L85.8096 771.979C86.0897 772.196 86.3886 772.425 86.7042 772.664C88.2074 773.804 89.7842 774.944 91.3609 776.009C92.2921 776.638 93.197 777.223 94.0673 777.755C96.991 779.542 99.3853 780.658 101.156 780.927C103.702 781.313 105.038 779.908 104.571 777.108C103.843 772.741 100.135 769.932 94.5351 768.359C92.5767 767.809 90.4996 767.446 88.4147 767.233C87.8444 767.174 87.2973 767.13 86.7793 767.098L86.2712 767.069C86.0014 767.056 85.7617 767.047 85.5553 767.042L85.1264 767.034ZM85.1699 768.692L85.2669 768.659L85.6453 768.668C86.3243 768.689 87.2027 768.743 88.2197 768.847C90.2031 769.049 92.1755 769.395 94.0193 769.913C99.0398 771.323 102.222 773.733 102.825 777.354L102.879 777.724C103.058 779.174 102.64 779.506 101.443 779.324C99.9926 779.104 97.7707 778.068 95.0449 776.402C94.1988 775.885 93.3163 775.314 92.4063 774.7C90.8587 773.654 89.307 772.533 87.8276 771.411L86.9475 770.737L85.9088 769.92L85.8144 769.853C85.4906 769.642 85.11 769.319 84.9321 769.03L84.8772 768.935C84.8258 768.829 84.8735 768.791 85.1699 768.692Z" fill="#E4EBF7"/>
<path fill-rule="evenodd" clip-rule="evenodd" d="M197.208 749.768C204.637 748.922 210.012 744.379 209.387 737.52L196.052 589.272C195.09 578.704 184.766 570.992 173.322 572.294C161.878 573.597 153.909 583.391 155.779 593.856L183.419 740.667C184.633 747.459 189.782 750.613 197.208 749.768Z" fill="#FFC999"/>
<path fill-rule="evenodd" clip-rule="evenodd" d="M154.987 436.065C168.47 434.529 180.684 443.505 182.031 455.94L196.525 589.623C197.641 599.919 189.62 609.154 178.453 610.426C167.288 611.697 157.06 604.54 155.413 594.304L134.026 461.406C132.037 449.043 141.503 437.6 154.987 436.065Z" fill="#FFC999"/>
<path fill-rule="evenodd" clip-rule="evenodd" d="M213.184 754.015L185.228 754.559L177.815 716.361L207.983 715.738L213.184 754.015Z" fill="#597EF7"/>
<path d="M207.791 722.576C208.267 722.567 208.662 722.914 208.673 723.352C208.682 723.754 208.366 724.092 207.946 724.153L207.829 724.163L179.976 724.739C179.5 724.749 179.105 724.402 179.094 723.964C179.084 723.562 179.401 723.223 179.821 723.162L179.937 723.152L207.791 722.576Z" fill="#E4EBF7"/>
<path fill-rule="evenodd" clip-rule="evenodd" d="M213.582 752.455L184.693 753.052L189.963 801.756L255.06 800.41L255.036 792.934C255.02 790.186 252.861 787.845 249.918 787.379L232.522 783.062L223.53 778.597C220.821 777.252 218.44 774.511 217.469 771.823C215.676 766.853 213.663 755.417 213.582 752.455Z" fill="#4E5C93"/>
<path fill-rule="evenodd" clip-rule="evenodd" d="M190.629 803.329L255.53 801.986C256.144 801.974 256.631 801.504 256.62 800.939L256.455 794.245C256.442 793.68 255.93 793.23 255.315 793.244L190.416 794.586C189.8 794.598 189.313 795.068 189.326 795.634L189.49 802.327C189.505 802.894 190.015 803.342 190.629 803.329Z" fill="#E4EBF7"/>
<path fill-rule="evenodd" clip-rule="evenodd" d="M255.316 793.244C255.211 789.026 251.795 785.498 247.251 784.917L232.52 783.04L231.805 793.582L255.316 793.244Z" fill="#E4EBF7"/>
<path d="M255.305 792.838C255.549 792.833 255.751 793.011 255.757 793.235C255.762 793.431 255.614 793.598 255.414 793.64L255.325 793.65L190.426 794.992C190.183 794.997 189.981 794.819 189.975 794.595C189.97 794.399 190.118 794.232 190.318 794.19L190.407 794.18L255.305 792.838Z" fill="#A3B5D6"/>
<path d="M218.638 769.367C219.113 769.264 219.588 769.535 219.699 769.972C219.801 770.372 219.562 770.773 219.156 770.916L218.702 771.033C218.415 771.109 218.094 771.206 217.747 771.323C216.754 771.657 215.761 772.088 214.84 772.622C214.467 772.839 214.113 773.068 213.783 773.309L213.64 773.417L213.673 773.421C214.134 773.474 214.634 773.543 215.169 773.626L215.578 773.691C216.137 773.783 216.721 773.887 217.323 774.002C217.858 774.105 218.389 774.211 218.906 774.32L220.557 774.682C220.59 774.69 220.62 774.697 220.647 774.703C221.356 774.87 221.535 775.697 221.001 776.109L220.611 776.359C220.364 776.522 220.087 776.719 219.787 776.949C219.172 777.421 218.555 777.959 217.959 778.563L217.853 778.674L218.037 778.673C218.361 778.672 218.694 778.678 219.036 778.689L219.556 778.71C221.022 778.781 222.583 778.951 224.165 779.19C224.725 779.274 225.26 779.363 225.762 779.453L226.602 779.611C226.81 779.652 226.969 779.684 227.071 779.707C227.963 779.9 227.969 781.033 227.146 781.269L226.86 781.33C226.696 781.367 226.463 781.432 226.181 781.529C225.51 781.761 224.838 782.09 224.214 782.533C223.582 782.981 223.034 783.522 222.59 784.165C222.329 784.544 221.783 784.656 221.372 784.416C220.96 784.176 220.838 783.674 221.099 783.295C221.657 782.486 222.346 781.807 223.135 781.247C223.312 781.122 223.489 781.005 223.665 780.896L223.846 780.787L223.12 780.684C222.112 780.546 221.12 780.44 220.168 780.374L219.462 780.332C218.16 780.268 217.001 780.291 216.028 780.411C215.261 780.506 214.742 779.712 215.192 779.134C215.414 778.848 215.644 778.571 215.881 778.3C216.638 777.437 217.441 776.678 218.251 776.021L218.422 775.885L217.745 775.746L216.964 775.593C216.378 775.481 215.81 775.379 215.268 775.29L214.574 775.182C213.342 774.999 212.343 774.904 211.665 774.919C210.913 774.934 210.485 774.134 210.958 773.596C211.751 772.694 212.747 771.915 213.898 771.248C214.934 770.648 216.036 770.169 217.139 769.798L217.61 769.645C218.052 769.508 218.404 769.417 218.638 769.367Z" fill="#E4EBF7"/>
<path d="M218.653 762.197L218.203 762.208C217.52 762.231 216.612 762.29 215.543 762.404C213.463 762.626 211.381 762.999 209.412 763.559C203.743 765.171 200.001 768.023 199.311 772.44C198.873 775.238 200.218 776.634 202.754 776.231C204.517 775.952 206.894 774.82 209.793 773.014C210.659 772.474 211.56 771.88 212.487 771.242C214.057 770.161 215.628 769.004 217.124 767.847L218.015 767.152L219.077 766.3C219.203 766.226 219.492 766.01 219.787 765.731C220.271 765.271 220.599 764.796 220.682 764.264C220.824 763.343 220.179 762.623 218.947 762.24C218.853 762.21 218.753 762.196 218.653 762.197ZM218.515 763.824C218.704 763.891 218.824 763.955 218.893 764.009L218.93 764.044C218.915 764.149 218.766 764.365 218.518 764.601C218.314 764.795 218.106 764.95 217.981 765.03L216.865 765.919C216.591 766.136 216.298 766.365 215.988 766.604C214.515 767.742 212.97 768.88 211.429 769.941C210.523 770.565 209.644 771.144 208.802 771.669C206.1 773.352 203.896 774.402 202.454 774.631C201.17 774.835 200.783 774.434 201.059 772.671C201.631 769.008 204.847 766.557 209.934 765.11C211.789 764.583 213.767 764.229 215.747 764.017L216.464 763.947C217.15 763.885 217.744 763.85 218.218 763.832L218.515 763.824Z" fill="#E4EBF7"/>
<path fill-rule="evenodd" clip-rule="evenodd" d="M158.527 388.664C166.481 388.862 175.996 410.44 188.183 429.114C204.052 453.429 222.699 477.901 230.408 495.769C228.592 502.132 212.763 517.795 212.763 517.795C212.763 517.795 215.812 523.446 216.544 526.489C198.897 547.934 174.395 550.531 174.395 550.531L174.339 554.883C134.23 571.868 80.5193 555.591 80.5193 555.591C80.5193 555.591 79.5172 554.646 80.2356 551.234C62.025 551.039 23.0302 529.79 23.0302 529.79L28.5733 519.275L12.5349 504.179C12.5349 504.179 62.1442 438.827 70.9658 416.361C79.1579 395.496 91.8574 387.228 91.8574 387.228C91.8574 387.228 131.485 387.989 158.527 388.664Z" fill="#4E5C93"/>
<path d="M89.3014 404.531C89.4655 404.223 89.8702 404.095 90.2053 404.246C90.507 404.382 90.6495 404.697 90.5554 404.984L90.5152 405.078L24.5669 528.986L25.1844 529.404L25.7004 529.744C27.003 530.595 28.5384 531.543 30.2969 532.565C35.3261 535.488 41.1301 538.412 47.6305 541.142C57.7366 545.385 68.5804 548.757 80.0315 550.932C80.3969 551.002 80.632 551.331 80.5565 551.667C80.481 552.003 80.1235 552.219 79.7581 552.15C68.2031 549.954 57.2638 546.553 47.0692 542.272C40.5111 539.518 34.6539 536.568 29.575 533.616C27.9934 532.696 26.5886 531.835 25.3675 531.049L24.9182 530.758C24.5472 530.515 24.2159 530.295 23.9249 530.097L23.2987 529.663C23.0787 529.505 22.9904 529.242 23.0657 529.002L23.1082 528.901L89.3014 404.531Z" fill="#253368"/>
<path d="M178.482 440.128C178.795 440.014 179.144 440.13 179.311 440.386L179.359 440.477L216.541 526.841C216.626 527.039 216.595 527.263 216.459 527.435L216.227 527.719L215.917 528.083C215.861 528.148 215.803 528.215 215.742 528.284L215.554 528.498C214.814 529.333 213.936 530.261 212.921 531.26C210.028 534.112 206.624 536.962 202.73 539.622C194.413 545.307 185.035 549.338 174.682 550.989C174.314 551.048 173.964 550.821 173.9 550.483C173.837 550.145 174.083 549.823 174.451 549.765C184.58 548.15 193.766 544.2 201.924 538.625C205.749 536.012 209.093 533.211 211.934 530.412C212.927 529.434 213.785 528.526 214.507 527.713L214.858 527.312L215.145 526.973L178.103 440.935C177.979 440.647 178.104 440.326 178.384 440.173L178.482 440.128Z" fill="#253368"/>
<path d="M141.194 391.026C141.56 390.958 141.916 391.177 141.989 391.513L143.635 399.14C144.945 405.23 146.404 412.06 147.975 419.472L149.898 428.57C153.42 445.282 156.916 462.14 160.241 478.525L162.095 487.704C162.567 490.05 163.032 492.373 163.491 494.671L165.323 503.903C169.239 523.754 172.512 541.124 174.999 555.406C175.051 555.706 174.861 555.996 174.549 556.093C172.581 556.708 170.588 557.278 168.573 557.803C144.283 564.128 118.372 563.77 93.9029 559.372L92.138 559.046C89.242 558.498 86.5754 557.925 84.1645 557.35L83.449 557.177C82.6813 556.99 81.9804 556.812 81.349 556.646L80.0856 556.304C79.8839 556.248 79.7331 556.204 79.6345 556.175C79.3443 556.089 79.1575 555.837 79.1658 555.565L79.1795 555.462L109.423 416.057C109.496 415.721 109.852 415.503 110.218 415.57C110.547 415.63 110.773 415.901 110.761 416.2L110.748 416.301L80.6238 555.155L81.7216 555.451C82.3444 555.615 83.0366 555.791 83.7954 555.976C86.8346 556.717 90.3096 557.459 94.1621 558.152C118.441 562.516 144.149 562.871 168.205 556.607C169.7 556.218 171.182 555.804 172.65 555.364L173.573 555.081L172.813 550.762C170.456 537.504 167.493 521.868 164.023 504.279L162.161 494.895L161.236 490.268C160.768 487.938 160.295 485.585 159.815 483.209C155.925 463.955 151.777 443.964 147.61 424.253L144.509 409.65L140.664 391.757C140.591 391.42 140.828 391.093 141.194 391.026Z" fill="#253368"/>
<path d="M128.33 391.976C128.666 391.984 128.939 392.215 128.983 392.512L128.989 392.613L125.839 512.014C125.829 512.357 125.52 512.628 125.147 512.62C124.811 512.613 124.538 512.381 124.494 512.085L124.488 511.984L127.638 392.583C127.648 392.24 127.957 391.968 128.33 391.976Z" fill="#253368"/>
<path d="M106.187 390.852C106.297 390.524 106.676 390.341 107.032 390.443C107.353 390.535 107.546 390.826 107.501 391.122L107.477 391.221L80.7906 470.24C80.6799 470.568 80.3013 470.751 79.9449 470.649C79.6242 470.557 79.4308 470.266 79.476 469.97L79.5001 469.871L106.187 390.852Z" fill="#253368"/>
<path fill-rule="evenodd" clip-rule="evenodd" d="M88.9541 388.662L90.099 380.672C90.099 380.672 124.405 380.86 158.05 379.31C158.901 382.857 159.878 389.241 159.878 389.241C157.049 387.104 126.487 393.345 88.9541 388.662Z" fill="#4E5C93"/>
<path d="M156.266 388.619C156.638 388.603 156.955 388.868 156.972 389.211C156.99 389.554 156.702 389.845 156.329 389.861L152.838 390.005C138.329 390.58 124.315 390.828 111.833 390.805L108.14 390.79C104.296 390.765 100.85 390.713 98.0546 390.642L95.8942 390.579C94.9394 390.547 94.1532 390.514 93.5761 390.481L92.935 390.438C92.8503 390.431 92.7766 390.424 92.7143 390.417C92.5935 390.404 92.5071 390.391 92.4289 390.369L92.3765 390.364C92.3132 390.349 92.258 390.295 91.9819 390.024L92.0837 389.515C92.1598 389.182 92.208 389.178 92.3886 389.162C92.5297 389.117 92.6759 389.118 92.8083 389.156L92.8874 389.184L93.3295 389.221L94.122 389.265C94.5398 389.285 95.0358 389.305 95.5999 389.325L97.0794 389.372C100.517 389.471 105.131 389.539 110.348 389.558L113.338 389.563C126.425 389.565 141.124 389.271 156.266 388.619Z" fill="#253368"/>
<path fill-rule="evenodd" clip-rule="evenodd" d="M56.7407 384.928C48.4647 383.046 43.4168 375.35 45.4615 367.738L65.4062 293.562C67.4526 285.952 75.821 281.307 84.097 283.189C92.3747 285.072 97.4226 292.769 95.3779 300.379L75.4332 374.555C73.3852 382.166 65.0185 386.81 56.7407 384.928Z" fill="#FFC999"/>
<path fill-rule="evenodd" clip-rule="evenodd" d="M86.9217 331.824L95.3773 300.38C97.4153 292.799 92.3405 285.064 84.0964 283.19C75.8556 281.315 67.4436 285.983 65.4073 293.563L57.0322 324.709L86.9217 331.824Z" fill="white"/>
<path d="M84.6577 282.811C93.0708 284.724 98.295 292.538 96.4102 300.278L96.3287 300.596L87.873 332.04C87.8096 332.275 87.5711 332.429 87.3168 332.412L87.2211 332.397L57.3316 325.283C57.0462 325.215 56.8747 324.947 56.9486 324.684C57.0142 324.451 57.2516 324.3 57.5041 324.317L57.5991 324.332L86.9659 331.321L95.2923 300.36C97.2314 293.148 92.4961 285.787 84.7405 283.845L84.4014 283.764C84.1152 283.699 83.9406 283.433 84.0113 283.17C84.0742 282.936 84.3099 282.783 84.5625 282.797L84.6577 282.811Z" fill="#0B0B0B"/>
<path fill-rule="evenodd" clip-rule="evenodd" d="M247.456 259.256L248.027 260.29C252.034 267.566 248.872 276.449 240.961 280.136L167.958 314.16C160.048 317.846 150.387 314.937 146.378 307.662L145.809 306.627C141.802 299.354 144.963 290.468 152.873 286.783L225.878 252.759C233.787 249.072 243.448 251.982 247.456 259.256Z" fill="#FFC999"/>
<path fill-rule="evenodd" clip-rule="evenodd" d="M183.738 272.398L152.322 287.038C144.748 290.569 141.945 299.617 146.094 307.145C150.242 314.673 159.833 317.945 167.406 314.417L198.524 299.915L183.738 272.398Z" fill="#F8F8F8"/>
<path d="M183.268 271.548C183.513 271.434 183.806 271.503 183.964 271.698L184.016 271.777L198.802 299.293C198.938 299.546 198.826 299.852 198.551 299.977C198.307 300.088 198.017 300.018 197.86 299.824L197.808 299.745L183.269 272.691L152.356 287.1C145.168 290.449 142.436 298.986 146.204 306.206L146.372 306.519C146.511 306.77 146.401 307.077 146.128 307.205C145.855 307.332 145.521 307.232 145.382 306.98C141.158 299.313 143.921 290.103 151.539 286.341L151.854 286.189L183.268 271.548Z" fill="#FEFEFE"/>
<path fill-rule="evenodd" clip-rule="evenodd" d="M164.867 280.876C157.302 276.964 148.373 280.748 143.995 277.129C141.407 274.989 140.515 264.861 140.515 264.861H108.229C108.229 264.861 107.336 274.989 104.747 277.129C100.371 280.748 88.853 278.553 76.7898 284.563C65.4031 290.237 72.2355 305.823 77.4495 318.709C78.6549 321.689 76.5749 327.303 78.5894 331.445C80.6156 335.614 83.696 340.661 84.9181 343.358C88.9336 352.219 88.1077 361.765 90.6979 369.805C90.6979 369.805 86.5717 377.148 93.0867 380.127H155.657C163.47 376.848 158.044 369.805 158.044 369.805C160.517 362.133 159.016 355.945 162.681 344.706C163.415 342.46 166.171 338.898 168.521 334.143C172.186 326.725 171.456 319.608 170.965 317.811C166.285 300.656 175.716 286.49 164.867 280.876Z" fill="#FCFCFC"/>
<path d="M113.621 278.062L135.023 278.221C135.318 278.223 135.555 278.444 135.553 278.715C135.55 278.956 135.36 279.156 135.11 279.195L135.014 279.202L113.613 279.043C113.318 279.041 113.081 278.82 113.083 278.548C113.085 278.307 113.276 278.108 113.525 278.069L113.621 278.062Z" fill="#4E5C93"/>
<path d="M82.5065 301.117C82.6331 300.872 82.9515 300.768 83.2178 300.884C83.4841 301.001 83.5974 301.294 83.4708 301.538L83.317 301.85L83.0448 302.43C82.9331 302.675 82.8149 302.941 82.6913 303.228C82.1017 304.596 81.5116 306.146 80.9607 307.847C78.9649 314.012 78.0006 320.44 78.6318 326.68C79.1267 331.561 80.8344 335.536 84.9476 341.814L85.6172 342.825L85.6884 342.997L86.5178 347.284C86.8758 349.122 87.2368 350.959 87.5935 352.757L88.8211 358.862C89.9427 364.353 90.7792 368.169 91.2149 369.679C91.2506 369.802 91.2325 369.934 91.1644 370.045C88.7358 374.021 90.5036 379.092 92.9487 379.612L93.0878 379.637L155.728 379.636L155.888 379.547C155.911 379.533 155.936 379.519 155.961 379.503L156.082 379.426C156.444 379.19 156.808 378.893 157.148 378.533C158.94 376.632 159.375 373.866 157.554 370C157.511 369.909 157.499 369.809 157.52 369.712L157.983 367.481C159.271 361.228 160.357 355.556 161.25 350.539L161.782 347.496C161.878 346.933 161.968 346.398 162.053 345.891L162.42 343.613L162.51 343.402C167.758 336.408 170.066 330.866 170.432 324.676C170.765 319.036 169.645 313.428 167.571 308.151C166.932 306.526 166.248 305.054 165.565 303.763L165.287 303.249C165.198 303.086 165.111 302.932 165.028 302.788L164.733 302.289C164.704 302.24 164.68 302.203 164.663 302.176C164.513 301.942 164.598 301.641 164.852 301.504C165.106 301.366 165.433 301.444 165.583 301.678L165.776 301.993L165.846 302.112C166.051 302.461 166.279 302.87 166.525 303.333C167.224 304.655 167.923 306.158 168.575 307.817C170.694 313.209 171.84 318.944 171.498 324.73C171.13 330.954 168.86 336.539 163.784 343.428L163.459 343.863L163.191 345.54L162.931 347.093C162.746 348.184 162.537 349.387 162.304 350.698L161.98 352.499C161.095 357.372 160.038 362.817 158.802 368.775L158.598 369.751L158.693 369.958C160.436 373.879 159.989 376.873 158.123 378.992L157.954 379.176C157.338 379.83 156.717 380.26 156.248 380.497L156.097 380.569L155.863 380.619L93.0085 380.613C89.6524 380.15 87.4998 374.367 90.0927 369.803L90.1286 369.74L89.9153 368.921C89.4548 367.076 88.757 363.853 87.8745 359.545L87.3359 356.896C86.9029 354.751 86.4547 352.496 86.0055 350.211L84.6537 343.259L84.3623 342.82C80.0483 336.307 78.1905 332.171 77.6118 327.168L77.5687 326.771C76.9234 320.391 77.9057 313.842 79.9374 307.567C80.4976 305.837 81.098 304.26 81.6988 302.866L81.9442 302.307C82.0234 302.13 82.0999 301.963 82.1735 301.805L82.4398 301.249C82.4674 301.194 82.4897 301.15 82.5065 301.117Z" fill="#37383D"/>
<path d="M161.678 328.552C161.973 328.552 162.212 328.772 162.212 329.043C162.212 329.285 162.023 329.485 161.774 329.527L161.678 329.534H84.4542C84.1594 329.534 83.9204 329.315 83.9204 329.043C83.9204 328.802 84.1093 328.602 84.3583 328.56L84.4542 328.552H161.678Z" fill="#4E5C93"/>
<path d="M104.088 276.776C104.364 276.6 104.733 276.639 104.959 276.855L105.029 276.933L124.088 302.288L144.005 277.368C144.204 277.119 144.567 277.046 144.857 277.182L144.951 277.235C145.222 277.418 145.301 277.752 145.153 278.019L145.095 278.105L124.617 303.728C124.364 304.044 123.871 304.064 123.587 303.794L123.515 303.714L103.916 277.641C103.704 277.358 103.78 276.971 104.088 276.776Z" fill="#E4EBF7"/>
<path fill-rule="evenodd" clip-rule="evenodd" d="M135.068 312.61C135.068 318.32 130.035 322.948 123.828 322.948C117.618 322.948 112.585 318.32 112.585 312.61C112.585 306.901 117.618 302.272 123.828 302.272C130.035 302.272 135.068 306.901 135.068 312.61Z" fill="#E4EBF7"/>
<path fill-rule="evenodd" clip-rule="evenodd" d="M131.943 312.61C131.943 316.733 128.309 320.075 123.827 320.075C119.343 320.075 115.71 316.733 115.71 312.61C115.71 308.488 119.343 305.145 123.827 305.145C128.309 305.145 131.943 308.488 131.943 312.61Z" fill="#FAAD14"/>
<path fill-rule="evenodd" clip-rule="evenodd" d="M114.66 504.946L19.3558 484.745C16.1646 484.069 14.1753 481.143 14.9106 478.21L30.5058 415.972C31.2411 413.038 34.4223 411.209 37.6118 411.885L132.917 432.086C136.105 432.761 138.096 435.688 137.361 438.621L121.766 500.859C121.03 503.791 117.849 505.621 114.66 504.946Z" fill="#597EF7"/>
<path fill-rule="evenodd" clip-rule="evenodd" d="M113.715 507.989L18.4098 487.789C15.2185 487.113 13.2309 484.186 13.9645 481.252L29.5597 419.016C30.295 416.082 33.4762 414.251 36.6674 414.928L131.971 435.129C135.161 435.805 137.15 438.731 136.415 441.664L120.82 503.902C120.086 506.834 116.903 508.665 113.715 507.989Z" fill="#253368"/>
<path fill-rule="evenodd" clip-rule="evenodd" d="M61.6213 463.526C56.8672 463.676 52.8282 460.36 52.4505 456L45.1582 371.835C44.7671 364.081 51.3409 357.527 59.7764 357.261C68.2875 356.996 75.3649 363.23 75.4405 371.061L70.1979 455.814C69.9377 460.039 66.2176 463.383 61.6213 463.526Z" fill="#FFC999"/>
<path fill-rule="evenodd" clip-rule="evenodd" d="M49.5374 472.584C49.5374 472.584 47.6992 451.593 55.2097 445.922C62.0102 440.785 70.3165 449.789 70.3165 449.789C70.3165 449.789 73.4859 454.616 77.268 462.152C79.9993 467.594 84.1977 479.54 80.1034 478.671C75.7152 477.74 75.2452 469.387 72.2252 470.556C69.1246 471.755 70.8234 476.867 70.9661 483.307C71.0534 487.332 72.858 487.127 72.2252 490.553C70.9896 497.249 54.1857 495.853 49.5374 472.584Z" fill="#FFC999"/>
<path d="M65.1162 475.756C65.474 475.826 65.7024 476.15 65.6265 476.479L65.6 476.611C65.5848 476.695 65.5672 476.806 65.5488 476.943L65.5301 477.088C65.0486 481.027 65.9409 486.279 69.3467 492.301C69.5155 492.599 69.3892 492.967 69.0648 493.122C68.7403 493.278 68.3404 493.162 68.1716 492.863C64.6378 486.615 63.7043 481.121 64.2139 476.952L64.2562 476.639C64.2839 476.454 64.3102 476.315 64.3309 476.226C64.3992 475.929 64.6908 475.73 65.0093 475.744L65.1162 475.756Z" fill="#DD936F"/>
<path d="M59.3503 475.454C59.7152 475.476 59.9913 475.766 59.967 476.102C59.6838 480.003 60.5271 484.207 62.11 488.381C62.5916 489.651 63.1076 490.823 63.6231 491.869C63.7581 492.143 63.8857 492.393 64.004 492.617L64.3021 493.164C64.4743 493.461 64.3522 493.83 64.0295 493.988C63.7068 494.147 63.3057 494.035 63.1335 493.738L62.9326 493.375C62.7766 493.086 62.6032 492.75 62.4168 492.372C61.8855 491.294 61.3547 490.089 60.8594 488.782C59.2228 484.467 58.3487 480.109 58.6454 476.021C58.6698 475.685 58.9854 475.431 59.3503 475.454Z" fill="#DD936F"/>
<path d="M53.9491 474.294C54.3149 474.294 54.6114 474.567 54.6114 474.903L54.6205 475.303C54.6255 475.435 54.6327 475.592 54.6428 475.772C54.6825 476.475 54.7541 477.259 54.8655 478.104C55.1836 480.517 55.7558 482.928 56.6432 485.172C57.1167 486.369 57.6695 487.487 58.3062 488.512C58.4877 488.804 58.3774 489.176 58.0599 489.343C57.7423 489.51 57.3378 489.409 57.1563 489.116C56.4804 488.029 55.8967 486.848 55.3985 485.588C54.4731 483.249 53.88 480.749 53.5506 478.251C53.4355 477.377 53.3614 476.565 53.3201 475.835L53.2921 475.204C53.2884 475.079 53.2869 474.978 53.2869 474.903C53.2869 474.567 53.5834 474.294 53.9491 474.294Z" fill="#DD936F"/>
</svg>
